<?xml version="1.0" standalone="no"?>
<!DOCTYPE svg PUBLIC "-//W3C//DTD SVG 20010904//EN"
 "http://www.w3.org/TR/2001/REC-SVG-20010904/DTD/svg10.dtd">
<svg version="1.0" xmlns="http://www.w3.org/2000/svg"
 width="720.000000pt" height="720.000000pt" viewBox="0 0 720.000000 720.000000"
 preserveAspectRatio="xMidYMid meet">
<metadata>
Created by potrace 1.12, written by Peter Selinger 2001-2015
</metadata>
<g transform="translate(0.000000,720.000000) scale(0.100000,-0.100000)"
fill="#000000" stroke="none">
<path d="M3382 7100 c-876 -57 -1683 -429 -2292 -1056 -501 -516 -825 -1150
-944 -1847 -37 -215 -49 -361 -49 -597 0 -546 108 -1024 343 -1516 322 -675
870 -1242 1535 -1590 396 -207 836 -338 1290 -385 154 -16 516 -16 670 0 840
86 1590 447 2175 1047 561 576 899 1302 981 2109 15 154 15 516 0 670 -61 596
-259 1142 -592 1635 -320 473 -793 892 -1297 1148 -563 287 -1206 422 -1820
382z m1948 -2467 c197 -92 306 -308 256 -503 -9 -35 -13 -66 -8 -69 5 -3 97
-71 205 -151 183 -135 216 -167 188 -184 -4 -3 -67 -21 -140 -41 -93 -25 -136
-33 -149 -26 -9 5 -77 55 -151 110 -74 56 -136 99 -138 97 -2 -2 12 -61 32
-132 34 -125 34 -130 16 -144 -22 -19 -202 -66 -222 -58 -20 8 -301 1055 -289
1077 5 9 46 26 92 39 118 32 221 27 308 -15z m-641 -124 c152 -53 269 -184
302 -340 6 -29 9 -89 7 -133 -3 -67 -10 -94 -40 -156 -36 -75 -94 -145 -153
-188 l-30 -21 73 19 c39 11 103 29 141 39 54 15 73 16 85 8 17 -14 69 -201 62
-225 -5 -13 -102 -43 -412 -126 -342 -92 -408 -106 -419 -95 -7 8 -22 52 -34
99 -12 47 -24 92 -27 101 -8 30 22 45 155 80 l131 33 -67 14 c-95 19 -165 55
-237 122 -70 66 -108 129 -131 215 -92 355 248 672 594 554z m-741 -176 c5
-10 20 -60 33 -111 28 -111 25 -121 -54 -140 -34 -8 -54 -18 -52 -25 28 -77
215 -807 211 -822 -4 -17 -25 -26 -110 -48 -57 -15 -111 -24 -120 -21 -9 3
-20 22 -26 43 -86 324 -211 785 -213 787 -1 2 -28 -5 -59 -13 -44 -12 -61 -13
-71 -5 -22 19 -72 221 -58 235 12 12 451 134 488 136 12 1 26 -7 31 -16z
m-548 -149 c8 -9 15 -55 18 -119 4 -92 2 -114 -21 -188 -15 -45 -44 -110 -65
-142 -41 -63 -126 -149 -178 -179 l-30 -18 68 -252 c37 -138 68 -259 68 -268
0 -23 -17 -30 -128 -59 -65 -16 -98 -20 -109 -13 -23 14 -300 1051 -286 1073
6 10 117 44 314 97 167 46 311 83 320 83 9 1 22 -6 29 -15z m-950 -323 c158
-50 302 -172 369 -314 43 -90 176 -574 167 -605 -4 -12 -36 -25 -110 -45 -57
-15 -111 -24 -119 -21 -9 3 -25 40 -38 91 -20 76 -24 84 -43 79 -12 -3 -67
-18 -123 -32 -77 -20 -103 -31 -103 -43 0 -9 9 -48 19 -86 17 -61 18 -72 5
-85 -20 -21 -208 -69 -227 -58 -11 6 -17 3 -22 -10 -4 -15 -37 -27 -143 -55
l-137 -37 -38 28 c-21 15 -44 31 -52 36 -9 7 -24 0 -51 -23 l-38 -34 -20 25
c-12 13 -35 42 -53 63 l-32 40 23 -87 c18 -67 21 -91 12 -102 -13 -17 -189
-68 -220 -64 -19 3 -35 55 -164 533 -94 351 -139 535 -134 545 11 18 148 56
235 65 161 17 347 -70 463 -217 106 -135 144 -302 108 -475 -6 -31 -4 -33 116
-122 68 -50 125 -90 126 -88 2 2 -59 239 -136 527 -78 287 -139 524 -138 525
4 3 187 62 213 69 46 12 222 -2 285 -23z"/>
<path d="M4479 4257 c-95 -35 -146 -111 -136 -198 14 -114 83 -179 191 -179
166 0 254 143 179 290 -21 39 -38 59 -67 74 -49 24 -121 30 -167 13z"/>
<path d="M2275 3611 c2 -9 25 -95 51 -191 25 -96 48 -177 50 -179 2 -3 242 58
252 64 6 4 -37 117 -61 158 -46 78 -148 143 -244 156 -46 7 -53 6 -48 -8z"/>
<path d="M1504 3363 c4 -16 34 -130 68 -256 60 -224 61 -227 80 -210 11 10 32
38 46 62 37 63 43 187 13 255 -31 72 -76 122 -133 150 -68 34 -82 34 -74 -1z"/>
</g>
</svg>
